<svg width="20" height="20" viewBox="0 0 20 20" fill="none" xmlns="http://www.w3.org/2000/svg">
<g clip-path="url(#clip0_15_14545)">
<path d="M9.99988 8.18176V12.0545H15.3817C15.1454 13.2999 14.4362 14.3545 13.3726 15.0636L16.618 17.5818C18.5089 15.8364 19.5998 13.2728 19.5998 10.2273C19.5998 9.51824 19.5362 8.83636 19.418 8.18187L9.99988 8.18176Z" fill="#4285F4"/>
<path d="M4.39555 11.9033L3.66358 12.4636L1.07263 14.4818C2.71808 17.7454 6.09056 20 9.99962 20C12.6996 20 14.9632 19.1091 16.6177 17.5818L13.3723 15.0636C12.4814 15.6636 11.345 16.0273 9.99962 16.0273C7.39963 16.0273 5.19061 14.2728 4.39964 11.9091L4.39555 11.9033Z" fill="#34A853"/>
<path d="M1.07265 5.51819C0.390868 6.86359 0 8.38179 0 9.99994C0 11.6181 0.390868 13.1363 1.07265 14.4817C1.07265 14.4907 4.39998 11.8999 4.39998 11.8999C4.19998 11.2999 4.08177 10.6636 4.08177 9.99984C4.08177 9.33612 4.19998 8.69979 4.39998 8.0998L1.07265 5.51819Z" fill="#FBBC05"/>
<path d="M9.99982 3.98182C11.4726 3.98182 12.7816 4.49089 13.8271 5.47272L16.6907 2.60912C14.9543 0.990971 12.6999 0 9.99982 0C6.09076 0 2.71808 2.24545 1.07263 5.51819L4.39986 8.10001C5.19072 5.73635 7.39984 3.98182 9.99982 3.98182Z" fill="#EA4335"/>
</g>
<defs>
<clipPath id="clip0_15_14545">
<rect width="20" height="20" fill="white"/>
</clipPath>
</defs>
</svg>
